PathFileType	4	(X/Y/Z)	 s10c0202.trc
DataRate	CameraRate	NumFrames	NumMarkers	Units	OrigDataRate	OrigDataStartFrame	OrigNumFrames
200	200	4	50	mm	200	1	2000
Frame#	Time	racr			lacr			c7			jug			rlel			rdr			llel			ldr			s2			lic			ric			lasi			rasi			rpsi			lpsi			rgt			lgt			rth1			rth2			rth3			rth4			rlfc			rmfc			rsh1			rsh2			rsh3			rsh4			rlmal			rmmal			rcal			rtoe			rmt5			lth1			lth2			lth4			lth3			llfc			lmfc			llmal			lmmal			lcal			lmt5			lsh1			lsh2			lsh3			lsh4			ltoe			SBIKE			LBIKE			RBIKE			
		X1	Y1	Z1	X2	Y2	Z2	X3	Y3	Z3	X4	Y4	Z4	X5	Y5	Z5	X6	Y6	Z6	X7	Y7	Z7	X8	Y8	Z8	X9	Y9	Z9	X10	Y10	Z10	X11	Y11	Z11	X12	Y12	Z12	X13	Y13	Z13	X14	Y14	Z14	X15	Y15	Z15	X16	Y16	Z16	X17	Y17	Z17	X18	Y18	Z18	X19	Y19	Z19	X20	Y20	Z20	X21	Y21	Z21	X22	Y22	Z22	X23	Y23	Z23	X24	Y24	Z24	X25	Y25	Z25	X26	Y26	Z26	X27	Y27	Z27	X28	Y28	Z28	X29	Y29	Z29	X30	Y30	Z30	X31	Y31	Z31	X32	Y32	Z32	X33	Y33	Z33	X34	Y34	Z34	X35	Y35	Z35	X36	Y36	Z36	X37	Y37	Z37	X38	Y38	Z38	X39	Y39	Z39	X40	Y40	Z40	X41	Y41	Z41	X42	Y42	Z42	X43	Y43	Z43	X44	Y44	Z44	X45	Y45	Z45	X46	Y46	Z46	X47	Y47	Z47	X48	Y48	Z48	X49	Y49	Z49	X50	Y50	Z50	
1	0.0050	380.715071	1324.423290	-32.073106	404.381048	1336.104367	-356.208751	384.737061	1359.072413	-195.821812	415.728327	1220.139586	-189.191939	460.954961	1077.061881	41.098807	619.317663	909.869880	3.324874	480.837657	1074.976268	-442.029653	636.218203	907.975093	-388.978310	-98.725654	1097.638502	-227.654905	82.049760	1088.679282	-359.786533	75.217359	1094.527944	-87.778741	95.424735	997.620906	-334.350635	67.582776	1029.825696	-79.227141	-56.528614	1151.020040	-171.896605	-39.000627	1152.885954	-279.996033	-58.599293	1022.578608	-25.289964	-28.832205	965.618943	-410.921150	37.654340	939.830460	17.188487	126.988781	942.687324	18.502645	201.349616	900.665291	25.087266	135.072870	977.808092	5.835810	317.547006	864.727064	20.085042	326.871939	857.262298	-99.029754	256.988337	760.895409	28.426652	249.963434	675.169778	4.581067	201.400164	606.690945	-14.976262	281.310690	670.879472	-17.518697	170.855358	509.532270	-48.555905	202.074509	537.756464	-121.815029	121.985050	487.898873	-98.724836	363.890122	474.636069	-81.707780	279.065330	445.623247	-24.908547	43.253073	853.375361	-424.294465	115.956706	807.305451	-410.808436	141.380637	831.700553	-399.192959	155.619339	728.010067	-400.500915	220.743001	641.452635	-378.099734	217.756481	633.711563	-258.834505	9.633039	332.133911	-375.703732	22.516730	323.834158	-297.186814	-49.480227	331.757257	-333.673261	68.049913	199.058818	-396.195167	133.717446	554.589816	-407.922386	118.136036	467.971169	-396.043607	58.879507	402.207110	-392.166122	144.604976	457.878210	-370.974673	150.985285	177.815206	-337.761979	-204.454913	834.224760	-224.667951	-78.612764	81.526441	-423.640308	-102.323230	81.415321	-24.149344	
2	0.0100	380.769750	1324.414943	-32.039053	404.384691	1336.046422	-356.232427	384.776104	1359.057774	-195.758049	415.758796	1220.111236	-189.177111	460.979049	1077.052611	41.127217	619.306579	909.849588	3.338065	480.773587	1074.912364	-442.099855	636.222693	907.967200	-389.035133	-98.670699	1097.635309	-227.576324	82.052705	1088.728285	-359.717070	75.277682	1094.516293	-87.697112	95.437730	997.643740	-334.311804	67.658039	1029.823250	-79.138561	-56.322079	1151.136631	-171.883175	-38.949795	1152.907045	-279.921376	-58.526774	1022.521690	-25.259328	-28.830001	965.662496	-410.883407	37.697701	939.736131	17.256397	127.061485	942.604920	18.578056	201.406117	900.569846	25.183267	135.114652	977.729584	5.897179	317.577779	864.609186	20.143672	326.915673	857.154657	-98.971976	257.091674	760.713534	28.492144	250.015749	675.045292	4.633641	201.521165	606.522281	-14.941734	281.403008	670.779288	-17.462050	170.988718	509.434301	-48.531760	202.183722	537.594812	-121.805063	122.122788	487.776498	-98.671830	364.027069	474.476468	-81.668628	279.242146	445.495695	-24.885394	43.255265	853.449351	-424.312327	115.988787	807.389183	-410.852166	141.399863	831.774785	-399.241754	155.676379	728.085227	-400.554273	220.786834	641.535270	-378.181574	217.867952	633.754679	-258.904382	9.560685	332.302293	-375.731861	22.560673	323.932181	-297.217806	-49.524235	331.930547	-333.694408	67.927085	199.194560	-396.211569	133.732906	554.694634	-407.970007	118.096968	468.073788	-396.130541	58.822119	402.318232	-392.196788	144.593900	457.994202	-371.028991	150.895682	177.931164	-337.771239	-204.449095	834.224464	-224.665133	-78.565590	81.576182	-423.616143	-102.327815	81.398049	-24.142123	
3	0.0150	380.817690	1324.439131	-31.999619	404.395795	1335.981891	-356.217359	384.803727	1359.038742	-195.666160	415.800115	1220.079562	-189.160778	460.992596	1077.049527	41.156393	619.318124	909.847244	3.327348	480.711744	1074.850077	-442.164407	636.234827	907.996867	-389.113525	-98.643493	1097.667158	-227.499208	82.049715	1088.760349	-359.664125	75.346806	1094.520996	-87.591286	95.456276	997.673901	-334.275080	67.740248	1029.807197	-79.047661	-56.335049	1151.164912	-171.816269	-38.897783	1152.908290	-279.831283	-58.421452	1022.469505	-25.204849	-28.805919	965.716759	-410.849125	37.754484	939.663145	17.310665	127.097988	942.543182	18.662064	201.442692	900.499303	25.265572	135.170395	977.623872	6.001780	317.626248	864.492687	20.216736	326.975970	857.066834	-98.917474	257.177835	760.628911	28.571304	250.098580	674.955345	4.701079	201.636838	606.381502	-14.890821	281.527935	670.677901	-17.421333	171.152004	509.304584	-48.503476	202.314887	537.492297	-121.781224	122.248066	487.685039	-98.630165	364.172624	474.338630	-81.618673	279.392004	445.399821	-24.853827	43.264707	853.497949	-424.303053	116.008814	807.446696	-410.858397	141.417730	831.840467	-399.247270	155.702855	728.162169	-400.607208	220.825269	641.586019	-378.235733	217.994567	633.812284	-258.952625	9.508337	332.419041	-375.763682	22.522754	324.032663	-297.242579	-49.572352	332.074151	-333.687394	67.835502	199.301986	-396.221948	133.731311	554.800515	-408.009244	118.060691	468.157134	-396.190251	58.759031	402.435087	-392.219801	144.573354	458.067835	-371.076151	150.815439	178.048066	-337.759006	-204.459240	834.230127	-224.661222	-78.385776	83.050358	-422.690619	-102.303798	81.406725	-24.122654	
4	0.0200	380.895022	1324.458809	-31.952585	404.391877	1335.931238	-356.228499	385.758566	1358.336395	-195.362739	415.828360	1220.042157	-189.130579	461.028003	1077.055376	41.164612	619.321676	909.837172	3.343224	480.663971	1074.798004	-442.224971	636.249479	908.016877	-389.183363	-98.597158	1097.633802	-227.434271	82.063712	1088.799661	-359.575776	75.633154	1094.636072	-87.497120	95.599313	997.959034	-334.521511	67.809055	1029.793677	-78.971429	-56.383274	1151.196433	-171.706421	-38.853943	1152.907782	-279.737283	-57.942752	1022.907001	-24.814519	-29.054725	964.903423	-410.780465	37.820344	939.575424	17.371682	127.133455	942.471181	18.728528	201.589056	900.337513	25.255231	135.225072	977.519185	6.080931	317.679296	864.384365	20.286532	327.007798	856.980815	-98.840789	257.249292	760.533112	28.651241	250.348350	675.096144	4.596490	201.809560	606.254207	-14.864170	281.627061	670.616068	-17.366761	171.244550	509.182137	-48.432347	202.465367	537.653342	-121.496203	122.378488	487.463578	-98.580811	364.259568	474.256101	-81.558835	279.542358	445.301573	-24.815521	43.290698	853.567736	-424.307366	116.028879	807.506680	-410.894668	141.396647	832.368968	-400.031853	155.743483	728.210844	-400.634970	220.896036	641.750802	-378.178881	217.833888	633.903414	-258.909517	9.444161	332.560868	-375.782123	22.598007	324.106545	-297.292198	-49.601765	332.210659	-333.698313	67.745728	199.378973	-396.228066	133.726293	554.905779	-408.050136	118.040358	468.272267	-396.207022	58.593761	402.680563	-392.237265	144.300749	458.525775	-370.208239	150.721797	178.131392	-337.754010	-204.461507	834.230285	-224.662895	-78.384113	83.038386	-422.664113	-102.288524	81.415340	-24.107258	
